# xmcd
#
# Track frame offsets: 
#        150
#        21475
#        29270
#        48627
#        61225
#        76790
#        88135
#        105782
#        120757
#        141280
#        157375
#
# Disc length: 2406 seconds
#
# Revision: 0
# Processed by: cddbd v1.5.1PL0 Copyright (c) Steve Scherf et al.
# Submitted via: ExactAudioCopy v0.95a5
#
DISCID=8809640b
DTITLE=Jess Fuller - Jazz, Folks Songs, Spirituals and Blues
DYEAR=1958
DGENRE=Folk
TTITLE0=Take This Hammer
TTITLE1=Linin' Track
TTITLE2=I'm Going To Meet My Loving Mother
TTITLE3=Tiger Rag
TTITLE4=Memphis Boogie
TTITLE5=Raise A Ruckus
TTITLE6=By And By
TTITLE7=Fingerbuster
TTITLE8=Stagolee
TTITLE9=99 Years
TTITLE10=Hesitation Blues
EXTD=
EXTT0=
EXTT1=
EXTT2=
EXTT3=
EXTT4=
EXTT5=
EXTT6=
EXTT7=
EXTT8=
EXTT9=
EXTT10=
PLAYORDER=
